<svg width="61" height="49" viewBox="0 0 61 49" fill="none" xmlns="http://www.w3.org/2000/svg">
<path d="M48.6 18.9062C49.5375 19.0938 50.5688 19.0938 51.5063 18.9062L52.35 20.3125C52.6313 20.7812 53.1938 20.9688 53.7563 20.7812C54.7875 20.4062 55.8188 19.75 56.7563 19.0938C57.1313 18.7188 57.3188 18.0625 57.0375 17.5938L56.1938 16.2812C56.85 15.5312 57.4125 14.5938 57.6938 13.6562H59.2875C59.85 13.6562 60.3188 13.2812 60.4125 12.7188C60.6 11.5 60.6 10.375 60.4125 9.25C60.3188 8.6875 59.85 8.21875 59.2875 8.21875H57.6938C57.4125 7.28125 56.85 6.4375 56.1938 5.6875L57.0375 4.375C57.3188 3.8125 57.1313 3.25 56.7563 2.875C55.8188 2.125 54.7875 1.5625 53.7563 1.09375C53.1938 0.90625 52.6313 1.09375 52.35 1.65625L51.5063 2.96875C50.5688 2.78125 49.5375 2.78125 48.6 2.96875L47.7563 1.65625C47.475 1.09375 46.9125 0.90625 46.35 1.09375C45.3188 1.5625 44.2875 2.125 43.35 2.875C42.975 3.25 42.7875 3.8125 43.0688 4.375L43.9125 5.6875C43.2563 6.4375 42.6938 7.28125 42.4125 8.21875H40.8188C40.2563 8.21875 39.7875 8.6875 39.6938 9.25C39.5063 10.375 39.5063 11.5938 39.6938 12.7188C39.7875 13.2812 40.2563 13.6562 40.8188 13.6562H42.4125C42.6938 14.5938 43.2563 15.5312 43.9125 16.2812L43.0688 17.5938C42.7875 18.0625 42.975 18.7188 43.35 19.0938C44.2875 19.75 45.3188 20.4062 46.35 20.7812C46.9125 20.9688 47.475 20.7812 47.7563 20.3125L48.6 18.9062ZM47.5688 13.4688C44.85 9.8125 48.8813 5.6875 52.5375 8.5C55.35 12.0625 51.225 16.1875 47.5688 13.4688ZM36.7875 27.9062C37.1625 25.9375 37.1625 23.875 36.7875 21.9062L39.975 20.3125C40.9125 19.75 41.2875 18.625 40.9125 17.5938C40.0688 15.3438 38.475 13.2812 36.8813 11.4062C36.225 10.5625 35.0063 10.375 34.0688 10.9375L31.35 12.5312C29.85 11.2188 28.0688 10.1875 26.1938 9.53125V6.4375C26.1938 5.3125 25.4438 4.375 24.3188 4.1875C21.975 3.8125 19.5375 3.8125 17.1938 4.1875C16.1625 4.375 15.4125 5.3125 15.4125 6.4375V9.53125C13.4438 10.1875 11.7563 11.2188 10.2563 12.5312L7.5375 10.9375C6.50625 10.375 5.38125 10.6562 4.63125 11.4062C3.13125 13.2812 1.5375 15.3438 0.69375 17.5938C0.31875 18.625 0.69375 19.75 1.725 20.3125L4.81875 21.9062C4.44375 23.875 4.44375 25.9375 4.81875 27.9062L1.725 29.4062C0.69375 29.9688 0.31875 31.1875 0.69375 32.125C1.5375 34.4688 3.13125 36.5312 4.63125 38.3125C5.38125 39.1562 6.6 39.3438 7.5375 38.7812L10.2563 37.2812C11.7563 38.5 13.4438 39.5312 15.4125 40.1875V43.375C15.4125 44.5 16.1625 45.4375 17.2875 45.625C19.6313 46 22.0688 46 24.3188 45.625C25.4438 45.4375 26.1938 44.5 26.1938 43.375V40.1875C28.0688 39.5312 29.85 38.5 31.35 37.2812L34.0688 38.875C35.0063 39.3438 36.225 39.1562 36.8813 38.3125C38.475 36.5312 40.0688 34.4688 40.9125 32.125C41.2875 31.0938 40.9125 29.9688 39.975 29.4062L36.7875 27.9062ZM25.725 29.875C18.5063 35.4062 10.2563 27.1562 15.8813 19.9375C23.1 14.4062 31.2563 22.6562 25.725 29.875ZM48.6 46.9375C49.5375 47.125 50.5688 47.125 51.5063 46.9375L52.35 48.3438C52.6313 48.8125 53.1938 49 53.7563 48.8125C54.7875 48.4375 55.8188 47.7812 56.7563 47.0312C57.1313 46.75 57.3188 46.0938 57.0375 45.625L56.1938 44.2188C56.85 43.4688 57.4125 42.625 57.6938 41.6875H59.2875C59.85 41.6875 60.3188 41.3125 60.4125 40.75C60.6 39.5312 60.6 38.4062 60.4125 37.2812C60.3188 36.7188 59.85 36.25 59.2875 36.25H57.6938C57.4125 35.3125 56.85 34.4688 56.1938 33.7188L57.0375 32.4062C57.3188 31.8438 57.1313 31.2812 56.7563 30.9062C55.8188 30.1562 54.7875 29.5938 53.7563 29.125C53.1938 28.9375 52.6313 29.125 52.35 29.6875L51.5063 31C50.5688 30.8125 49.5375 30.8125 48.6 31L47.7563 29.6875C47.475 29.125 46.9125 28.9375 46.35 29.125C45.3188 29.5938 44.2875 30.1562 43.35 30.9062C42.975 31.2812 42.7875 31.8438 43.0688 32.4062L43.9125 33.7188C43.2563 34.4688 42.6938 35.3125 42.4125 36.25H40.8188C40.2563 36.25 39.7875 36.7188 39.6938 37.2812C39.5063 38.4062 39.5063 39.625 39.6938 40.75C39.7875 41.3125 40.2563 41.6875 40.8188 41.6875H42.4125C42.6938 42.625 43.2563 43.4688 43.9125 44.2188L43.0688 45.625C42.7875 46.0938 42.975 46.75 43.35 47.0312C44.2875 47.7812 45.3188 48.4375 46.35 48.8125C46.9125 49 47.475 48.8125 47.7563 48.3438L48.6 46.9375ZM47.5688 41.4062C44.85 37.8438 48.8813 33.7188 52.5375 36.5312C55.35 40.0938 51.225 44.2188 47.5688 41.4062Z" fill="#FF4B36"/>
</svg>
