<svg width="49" height="49" viewBox="0 0 49 49" fill="none" xmlns="http://www.w3.org/2000/svg">
<path d="M47.9438 41.5312L38.5688 32.1562C38.1 31.7812 37.5375 31.5 36.975 31.5H35.475C38.0063 28.2188 39.6 24.0938 39.6 19.5C39.6 8.8125 30.7875 0 20.1 0C9.31875 0 0.6 8.8125 0.6 19.5C0.6 30.2812 9.31875 39 20.1 39C24.6 39 28.725 37.5 32.1 34.875V36.4688C32.1 37.0312 32.2875 37.5938 32.7563 38.0625L42.0375 47.3438C42.975 48.2812 44.3813 48.2812 45.225 47.3438L47.85 44.7188C48.7875 43.875 48.7875 42.4688 47.9438 41.5312ZM20.1 31.5C13.4438 31.5 8.1 26.1562 8.1 19.5C8.1 12.9375 13.4438 7.5 20.1 7.5C26.6625 7.5 32.1 12.9375 32.1 19.5C32.1 26.1562 26.6625 31.5 20.1 31.5Z" fill="#FF4B36"/>
</svg>
