<svg width="14" height="14" viewBox="0 0 14 14" fill="none" xmlns="http://www.w3.org/2000/svg">
<path d="M7.21249 4.00586C5.33749 4.00586 3.84335 5.5293 3.84335 7.375C3.84335 9.25 5.33749 10.7441 7.21249 10.7441C9.0582 10.7441 10.5816 9.25 10.5816 7.375C10.5816 5.5293 9.0582 4.00586 7.21249 4.00586ZM7.21249 9.57227C6.01132 9.57227 5.01523 8.60547 5.01523 7.375C5.01523 6.17383 5.98203 5.20703 7.21249 5.20703C8.41367 5.20703 9.38046 6.17383 9.38046 7.375C9.38046 8.60547 8.41367 9.57227 7.21249 9.57227ZM11.4898 3.88867C11.4898 3.44922 11.1383 3.09766 10.6988 3.09766C10.2594 3.09766 9.90781 3.44922 9.90781 3.88867C9.90781 4.32812 10.2594 4.67969 10.6988 4.67969C11.1383 4.67969 11.4898 4.32812 11.4898 3.88867ZM13.7164 4.67969C13.6578 3.625 13.4234 2.6875 12.6617 1.92578C11.9 1.16406 10.9625 0.929688 9.90781 0.871094C8.82382 0.8125 5.57187 0.8125 4.48788 0.871094C3.4332 0.929688 2.52499 1.16406 1.73398 1.92578C0.97226 2.6875 0.737885 3.625 0.679291 4.67969C0.620697 5.76367 0.620697 9.01562 0.679291 10.0996C0.737885 11.1543 0.97226 12.0625 1.73398 12.8535C2.52499 13.6152 3.4332 13.8496 4.48788 13.9082C5.57187 13.9668 8.82382 13.9668 9.90781 13.9082C10.9625 13.8496 11.9 13.6152 12.6617 12.8535C13.4234 12.0625 13.6578 11.1543 13.7164 10.0996C13.775 9.01562 13.775 5.76367 13.7164 4.67969ZM12.3102 11.2422C12.1051 11.8281 11.6363 12.2676 11.0797 12.502C10.2008 12.8535 8.14999 12.7656 7.21249 12.7656C6.2457 12.7656 4.19492 12.8535 3.34531 12.502C2.75937 12.2676 2.31992 11.8281 2.08554 11.2422C1.73398 10.3926 1.82187 8.3418 1.82187 7.375C1.82187 6.4375 1.73398 4.38672 2.08554 3.50781C2.31992 2.95117 2.75937 2.51172 3.34531 2.27734C4.19492 1.92578 6.2457 2.01367 7.21249 2.01367C8.14999 2.01367 10.2008 1.92578 11.0797 2.27734C11.6363 2.48242 12.0758 2.95117 12.3102 3.50781C12.6617 4.38672 12.5738 6.4375 12.5738 7.375C12.5738 8.3418 12.6617 10.3926 12.3102 11.2422Z" fill="black"/>
</svg>
