<svg width="55" height="51" viewBox="0 0 55 51" fill="none" xmlns="http://www.w3.org/2000/svg">
<path d="M49.1562 27.0938C52.7188 27.0938 54.5 30.0938 54.5 33.2812C54.5 36.375 52.625 39 49.3438 39C45.5938 39 44.5625 35.625 41.1875 35.625C35.5625 35.625 38.75 46.875 38.75 46.875C33.9688 46.875 21.7812 50.25 21.7812 44.5312C21.7812 41.1562 25.25 40.125 25.25 36.4688C25.25 33.0938 22.5312 31.3125 19.4375 31.3125C16.1562 31.3125 13.4375 33.0938 13.4375 36.5625C13.4375 40.5 17.1875 42.0938 17.1875 44.25C17.1875 50.8125 0.5 46.875 0.5 46.875V15.6562C0.5 15.6562 16.9062 19.5 16.9062 13.0312C16.9062 10.875 14 9.1875 14 5.34375C14 1.78125 16.9062 0 20.1875 0C23.2812 0 26 1.875 26 5.15625C26 8.90625 22.5312 9.84375 22.5312 13.2188C22.5312 21 41 13.5 41 13.5C41 13.5 35.8438 30.0938 41.4688 30.0938C43.5312 30.0938 45.2188 27.0938 49.1562 27.0938Z" fill="#FF4B36"/>
</svg>
